<svg id="vector_logo" data-name="vector logo" xmlns="http://www.w3.org/2000/svg" xmlns:xlink="http://www.w3.org/1999/xlink" viewBox="0 0 497.18 104.62"><defs><style>.cls-1{fill:#fff;}.cls-2{opacity:0.2;}.cls-3{fill:url(#linear-gradient);}.cls-4{fill:none;}.cls-5{fill:#356684;}.cls-6{fill:url(#linear-gradient-2);}.cls-7{fill:url(#linear-gradient-3);}</style><linearGradient id="linear-gradient" x1="293.07" y1="362.09" x2="460.65" y2="362.09" gradientUnits="userSpaceOnUse"><stop offset="0" stop-color="#00799c"/><stop offset="0.48" stop-color="#007b9e"/><stop offset="0.66" stop-color="#0082a4"/><stop offset="0.78" stop-color="#008daf"/><stop offset="0.88" stop-color="#009ebe"/><stop offset="0.97" stop-color="#00b4d2"/><stop offset="1" stop-color="#00bedb"/></linearGradient><linearGradient id="linear-gradient-2" x1="310.6" y1="391.67" x2="572.34" y2="343.52" gradientUnits="userSpaceOnUse"><stop offset="0" stop-color="#6cccdd"/><stop offset="0.79" stop-color="#317b85"/><stop offset="1" stop-color="#21646c"/></linearGradient><linearGradient id="linear-gradient-3" x1="435.13" y1="403.5" x2="180.79" y2="399.72" gradientUnits="userSpaceOnUse"><stop offset="0" stop-color="#95ccd9"/><stop offset="0.5" stop-color="#cce6ed"/><stop offset="1" stop-color="#fff"/></linearGradient></defs><title>gv_logo</title><rect class="" width="497.18" height="104.62"/><g class="cls-2"><path class="cls-3" d="M293.07,383.25a62.6,62.6,0,0,0,17.64-3.88A104.91,104.91,0,0,0,327,371.52c5.21-3,10.22-6.42,15.22-9.85s10-6.84,15.25-10a89.16,89.16,0,0,1,16.5-8.23A41,41,0,0,1,392.42,341a42.59,42.59,0,0,1,17.51,6.27,65.92,65.92,0,0,1,7.53,5.38,89.25,89.25,0,0,1,6.76,6.27l-.26-.18,18.24,10.13,18.1,10.37-.07.13-36.82-19.6h0l0,0c-2.16-2.12-4.38-4.18-6.73-6.1a67,67,0,0,0-7.41-5.24,41.21,41.21,0,0,0-17-6,40.74,40.74,0,0,0-17.83,2.34,86.93,86.93,0,0,0-16.28,8c-10.37,6.3-20.11,13.61-30.7,19.58A98.14,98.14,0,0,1,310.91,380a63.07,63.07,0,0,1-17.83,3.43Z" transform="translate(-62.09 -321.83)"/></g><path class="cls-4" d="M203.64,383" transform="translate(-62.09 -321.83)"/><path class="cls-4" d="M353.79,384.63" transform="translate(-62.09 -321.83)"/><path class="cls-5" d="M89.13,360.36h1.24v6.05A9.73,9.73,0,0,1,84,368.48c-5.36,0-9.3-3.48-9.3-8.19s3.94-8.19,9.32-8.19a9.16,9.16,0,0,1,6.4,2.22l-.81.78a8,8,0,0,0-5.56-1.91c-4.62,0-8,3-8,7.1s3.43,7.11,8,7.11a8.32,8.32,0,0,0,5-1.48Z" transform="translate(-62.09 -321.83)"/><path class="cls-5" d="M107.06,363.82H96.75l-2.26,4.55h-1.4l8.18-16.15h1.29l8.18,16.15h-1.4Zm-.49-1-4.67-9.32-4.64,9.32Z" transform="translate(-62.09 -321.83)"/><path class="cls-5" d="M126.41,360.36h1.24v6.05a9.74,9.74,0,0,1-6.35,2.07c-5.35,0-9.29-3.48-9.29-8.19s3.94-8.19,9.32-8.19a9.2,9.2,0,0,1,6.4,2.22l-.82.78a7.93,7.93,0,0,0-5.56-1.91c-4.62,0-8,3-8,7.1s3.43,7.11,8,7.11a8.35,8.35,0,0,0,5.06-1.48Z" transform="translate(-62.09 -321.83)"/><path class="cls-5" d="M145.68,368.37l-4.24-5.4a13.72,13.72,0,0,1-1.73.11h-5.08v5.29h-1.29V352.22h6.37c4.47,0,7.16,2,7.16,5.44,0,2.56-1.52,4.34-4.16,5.06l4.44,5.65Zm-6-6.32c3.81,0,5.84-1.62,5.84-4.39s-2-4.38-5.84-4.38h-5.08v8.77Z" transform="translate(-62.09 -321.83)"/><path class="cls-5" d="M162.62,363.82H152.31l-2.26,4.55h-1.4l8.18-16.15h1.29l8.18,16.15h-1.4Zm-.49-1-4.67-9.32-4.64,9.32Z" transform="translate(-62.09 -321.83)"/><path class="cls-5" d="M190.24,352.22l-7.92,16.15H181l-7.93-16.15h1.43l7.18,14.63,7.19-14.63Z" transform="translate(-62.09 -321.83)"/><path class="cls-5" d="M205.38,367.31v1.06H193.11V352.22H205v1.06H194.41v6.37h9.47v1h-9.47v6.62Z" transform="translate(-62.09 -321.83)"/><path class="cls-5" d="M224.57,352.22v16.15h-1.06l-12.11-14v14h-1.3V352.22h1.09l12.09,14v-14Z" transform="translate(-62.09 -321.83)"/><path class="cls-5" d="M234.17,353.28h-6.39v-1.06h14.09v1.06h-6.4v15.09h-1.3Z" transform="translate(-62.09 -321.83)"/><path class="cls-5" d="M244.56,361.52v-9.3h1.3v9.25c0,4,2.13,5.93,5.84,5.93s5.81-1.89,5.81-5.93v-9.25h1.29v9.3c0,4.61-2.71,7-7.13,7S244.56,366.13,244.56,361.52Z" transform="translate(-62.09 -321.83)"/><path class="cls-5" d="M277.19,368.37,273,363a13.72,13.72,0,0,1-1.73.11h-5.08v5.29h-1.29V352.22h6.37c4.47,0,7.16,2,7.16,5.44,0,2.56-1.52,4.34-4.16,5.06l4.44,5.65Zm-6-6.32c3.81,0,5.84-1.62,5.84-4.39s-2-4.38-5.84-4.38h-5.08v8.77Z" transform="translate(-62.09 -321.83)"/><path class="cls-5" d="M295.4,367.31v1.06H283.13V352.22H295v1.06H284.43v6.37h9.47v1h-9.47v6.62Z" transform="translate(-62.09 -321.83)"/><path class="cls-5" d="M298.32,366.29l.58-.88a8.91,8.91,0,0,0,5.87,2c3.55,0,5.13-1.4,5.13-3.16,0-4.84-11.1-1.93-11.1-7.89,0-2.28,1.93-4.29,6.3-4.29a10.21,10.21,0,0,1,5.35,1.46l-.48.94a9.42,9.42,0,0,0-4.87-1.36c-3.46,0-5,1.45-5,3.23,0,4.85,11.1,2,11.1,7.84,0,2.29-2,4.27-6.4,4.27A9.63,9.63,0,0,1,298.32,366.29Z" transform="translate(-62.09 -321.83)"/><path class="cls-6" d="M551.78,383.33c-95.56-23.58-72.87-103.52-199.69,0-.35.28.33-.3,0,0,98,.08,199.72,0,199.69,0" transform="translate(-62.09 -321.83)"/><path class="cls-7" d="M195.22,383.23c75.09,13.88,64,75.85,156.88.06.25-.2-.25.22,0,0C280.32,383.23,255.29,383.23,195.22,383.23Z" transform="translate(-62.09 -321.83)"/></svg>